<?xml version="1.0" encoding="UTF-8"?>
<svg xmlns="http://www.w3.org/2000/svg" xmlns:xlink="http://www.w3.org/1999/xlink" viewBox="0 0 18 18" width="18px" height="18px">
<g id="surface81090914">
<path style=" stroke:none;fill-rule:nonzero;fill:rgb(46.666667%,47.843137%,57.254905%);fill-opacity:1;" d="M 13.695312 1.800781 C 13.390625 1.800781 13.082031 1.917969 12.847656 2.152344 L 11.398438 3.601562 L 14.398438 6.601562 L 15.847656 5.152344 C 16.316406 4.683594 16.316406 3.921875 15.847656 3.453125 L 14.546875 2.152344 C 14.3125 1.917969 14.003906 1.800781 13.695312 1.800781 Z M 10.199219 4.800781 L 3.15625 11.84375 C 3.15625 11.84375 3.707031 11.792969 3.910156 12 C 4.117188 12.207031 3.949219 13.546875 4.199219 13.800781 C 4.453125 14.050781 5.785156 13.875 5.976562 14.066406 C 6.167969 14.257812 6.15625 14.84375 6.15625 14.84375 L 13.199219 7.800781 Z M 2.398438 13.800781 L 1.835938 15.402344 C 1.8125 15.464844 1.800781 15.53125 1.800781 15.601562 C 1.800781 15.929688 2.070312 16.199219 2.398438 16.199219 C 2.46875 16.199219 2.535156 16.1875 2.597656 16.164062 C 2.597656 16.164062 2.601562 16.164062 2.601562 16.164062 L 2.617188 16.160156 C 2.621094 16.160156 2.621094 16.15625 2.621094 16.15625 L 4.199219 15.601562 L 3.300781 14.699219 Z M 2.398438 13.800781 "/>
</g>
</svg>
