<?xml version="1.0" encoding="UTF-8"?>
<svg xmlns="http://www.w3.org/2000/svg" xmlns:xlink="http://www.w3.org/1999/xlink" viewBox="0 0 18 18" width="18px" height="18px">
<g id="surface86870834">
<path style=" stroke:none;fill-rule:nonzero;fill:rgb(46.666667%,47.843137%,57.254905%);fill-opacity:1;" d="M 8.992188 1.492188 C 8.660156 1.496094 8.394531 1.769531 8.398438 2.101562 L 8.398438 2.398438 L 5.101562 2.398438 C 4.941406 2.398438 4.785156 2.460938 4.671875 2.574219 C 4.554688 2.6875 4.492188 2.839844 4.492188 3 L 3.601562 3 C 3.382812 2.996094 3.183594 3.109375 3.074219 3.296875 C 2.964844 3.484375 2.964844 3.714844 3.074219 3.902344 C 3.183594 4.089844 3.382812 4.203125 3.601562 4.199219 L 14.398438 4.199219 C 14.617188 4.203125 14.816406 4.089844 14.925781 3.902344 C 15.035156 3.714844 15.035156 3.484375 14.925781 3.296875 C 14.816406 3.109375 14.617188 2.996094 14.398438 3 L 13.507812 3 C 13.507812 2.839844 13.445312 2.6875 13.328125 2.574219 C 13.214844 2.460938 13.058594 2.398438 12.898438 2.398438 L 9.601562 2.398438 L 9.601562 2.101562 C 9.601562 1.9375 9.539062 1.78125 9.425781 1.667969 C 9.308594 1.550781 9.152344 1.488281 8.992188 1.492188 Z M 3.601562 5.398438 L 4.675781 14.539062 C 4.746094 15.144531 5.257812 15.601562 5.867188 15.601562 L 12.132812 15.601562 C 12.742188 15.601562 13.253906 15.144531 13.324219 14.539062 L 14.398438 5.398438 Z M 3.601562 5.398438 "/>
</g>
</svg>
